{"title":"San.Andreas.2015.1080p.WEB-DL.DD5.1.H264-RARBG","uid":12392032,"size":4218778773,"categoryP":"video","categoryS":"hd___movies","magnet":"?xt=urn:btih:d124d1f9578c2ad73e0f6a7e370b603f7a515b12&amp;dn=San.Andreas.2015.1080p.WEB-DL.DD5.1.H264-RARBG&amp;tr=udp%3A%2F%2Ftracker.openbittorrent.com%3A80&amp;tr=udp%3A%2F%2Fopen.demonii.com%3A1337&amp;tr=udp%3A%2F%2Ftracker.coppersurfer.tk%3A6969&amp;tr=udp%3A%2F%2Fexodus.desync.com%3A6969","seeders":5,"leechers":6,"uploader":"vickey1992","files":5,"time":1441901511,"description":"Video\nID                                       : 1\nFormat                                   : AVC\nFormat/Info                              : Advanced Video Codec\nFormat profile                           : High@L4\nFormat settings, CABAC                   : Yes\nFormat settings, ReFrames                : 5 frames\nCodec ID                                 : V_MPEG4/ISO/AVC\nDuration                                 : 1h 54mn\nBit rate                                 : 4 432 Kbps\nWidth                                    : 1 912 pixels\nHeight                                   : 796 pixels\nDisplay aspect ratio                     : 2.40:1\nFrame rate mode                          : Constant\nFrame rate                               : 23.976 fps\nColor space                              : YUV\nChroma subsampling                       : 4:2:0\nBit depth                                : 8 bits\nScan type                                : Progressive\nBits/(Pixel*Frame)                       : 0.121\nStream size                              : 3.54 GiB (90%)\nTitle                                    : San.Andreas.2015.1080p.WEB-DL.DD5.1.H264-RARBG\nLanguage                                 : English\nDefault                                  : Yes\nForced                                   : No\nColor range                              : Limited\nColor primaries                          : BT.709\nTransfer characteristics                 : BT.709\nMatrix coefficients                      : BT.709\n\nAudio\nID                                       : 2\nFormat                                   : AC-3\nFormat/Info                              : Audio Coding 3\nMode extension                           : CM (complete main)\nFormat settings, Endianness              : Big\nCodec ID                                 : A_AC3\nDuration                                 : 1h 54mn\nBit rate mode                            : Constant\nBit rate                                 : 384 Kbps\nChannel(s)                               : 6 channels\nChannel positions                        : Front: L C R, Side: L R, LFE\nSampling rate                            : 48.0 KHz\nCompression mode                         : Lossy\nStream size                              : 314 MiB (8%)\nTitle                                    : San.Andreas.2015.1080p.WEB-DL.DD5.1.H264-RARBG\nLanguage                                 : English\nDefault                                  : Yes\nForced                                   : No\n\nText\nID                                       : 3\nFormat                                   : UTF-8\nCodec ID                                 : S_TEXT/UTF8\nCodec ID/Info                            : UTF-8 Plain Text\nLanguage                                 : English\nDefault                                  : Yes\nForced                                   : No\n\nMenu\n00:00:00.000                             : en:1\n00:09:27.000                             : en:2\n00:18:40.000                             : en:3\n00:30:10.000                             : en:4\n00:40:13.000                             : en:5\n00:50:18.000                             : en:6\n00:59:43.000                             : en:7\n01:11:27.000                             : en:8\n01:19:43.000                             : en:9\n01:30:40.000                             : en:10\n01:39:53.000                             : en:11\n01:47:10.000                             : en:12","torrent":{"xt":"urn:btih:d124d1f9578c2ad73e0f6a7e370b603f7a515b12","amp;dn":"San.Andreas.2015.1080p.WEB-DL.DD5.1.H264-RARBG","amp;tr":["udp%3A%2F%2Ftracker.openbittorrent.com%3A80","udp%3A%2F%2Fopen.demonii.com%3A1337","udp%3A%2F%2Ftracker.coppersurfer.tk%3A6969","udp%3A%2F%2Fexodus.desync.com%3A6969"],"infoHash":"d124d1f9578c2ad73e0f6a7e370b603f7a515b12","infoHashBuffer":{"type":"Buffer","data":[209,36,209,249,87,140,42,215,62,15,106,126,55,11,96,63,122,81,91,18]},"announce":[],"urlList":[]}}